<svg width="1024" height="1024" viewBox="0 0 1024 1024" fill="none" xmlns="http://www.w3.org/2000/svg">
<path d="M318.4 839C268 839 203.2 826.2 203.2 781.4C203.2 754.2 232 732.6 280.8 732.6C318.4 732.6 368.8 741.4 423.2 761.4C448 735.8 476.8 687.8 512 616.6L555.2 530.2C599.2 443 655.2 371 708 330.2C665.6 289.4 608.8 274.2 557.6 274.2C401.6 274.2 276 434.2 276 549.4C276 588.6 301.6 617.4 340 617.4C436.8 617.4 510.4 503.8 520.8 396.6C522.4 380.6 524.8 359.8 533.6 359.8C543.2 359.8 547.2 379 547.2 396.6C547.2 501.4 456.8 641.4 337.6 641.4C255.2 641.4 200 590.2 200 519.8C200 379 378.4 253.4 552.8 253.4C626.4 253.4 687.2 275 730.4 314.2C753.6 299.8 776 291.8 796 291.8C802.4 291.8 808 292.6 808 298.2C808 303.8 804 306.2 776.8 320.6C768 325.4 760 331 752.8 337.4C788 381.4 808 442.2 808 515.8C808 698.2 700.8 836.6 552 836.6C512.8 836.6 476 827.8 443.2 811.8C400.8 830.2 359.2 839 318.4 839ZM492.8 787.8C517.6 798.2 543.2 804.6 561.6 804.6C694.4 804.6 776 672.6 776 517.4C776 447.8 759.2 395.8 732.8 359C706.4 393.4 686.4 445.4 668 518.2C637.6 636.6 569.6 742.2 492.8 787.8ZM310.4 815C342.4 815 375.2 805.4 400 786.2C354.4 765.4 315.2 753.4 283.2 753.4C252 753.4 233.6 765.4 233.6 781.4C233.6 806.2 275.2 815 310.4 815Z" fill="#9286E9"/>
</svg>
